<svg xmlns="http://www.w3.org/2000/svg" viewBox="0 0 128 128">
  <defs>
    <linearGradient id="g" x1="0" y1="0" x2="1" y2="1">
      <stop offset="0" stop-color="#667eea"/>
      <stop offset="1" stop-color="#764ba2"/>
    </linearGradient>
  </defs>
  <rect width="128" height="128" rx="28" fill="url(#g)"/>
  <path d="M44 40h-6c-8 0-14 6-14 14v20c0 8 6 14 14 14h6" fill="none" stroke="#fff" stroke-width="10" stroke-linecap="round"/>
  <path d="M84 40h6c8 0 14 6 14 14v20c0 8-6 14-14 14h-6" fill="none" stroke="#fff" stroke-width="10" stroke-linecap="round"/>
  <path d="M56 86c0 4 4 8 8 8s8-4 8-8-4-8-8-8-8 4-8 8z" fill="#00e5ff"/>
</svg>
